<svg xmlns="http://www.w3.org/2000/svg" width="128" height="128" viewBox="0 0 128 128">
  <title>MORTGAGE</title>
  <g>
    <path d="M119.245,76.078a8.861,8.861,0,0,0-12.514,0l-.126.126V42.29l3.958,2.626a1.751,1.751,0,0,0,2.426-.49l5.52-8.32a1.75,1.75,0,0,0-.49-2.425L74.567,4.849a1.75,1.75,0,0,0-1.935,0L29.18,33.681a1.751,1.751,0,0,0-.491,2.425l5.521,8.32a1.75,1.75,0,0,0,2.426.49l3.958-2.626v33.9H28.862V73.881a1.749,1.749,0,0,0-1.75-1.75H7.913a1.75,1.75,0,1,0,0,3.5H25.362v44.312H7.913a1.75,1.75,0,1,0,0,3.5h19.2a1.749,1.749,0,0,0,1.75-1.75v-2.315H83.493a11.911,11.911,0,0,0,8.479-3.513l27.273-27.273a8.848,8.848,0,0,0,0-12.514ZM36.158,41.032l-3.585-5.4L73.6,8.407l41.025,27.222-3.584,5.4-36.474-24.2a1.75,1.75,0,0,0-1.935,0Zm7.936-1.064L73.6,20.39l29.505,19.578V79.7L91.061,91.749a8.855,8.855,0,0,0-8.259-5.7H62.687l-4.242-4.4a17.889,17.889,0,0,0-12.818-5.452H44.094ZM116.77,86.117,89.5,113.391a8.439,8.439,0,0,1-6,2.487H28.862V79.695H45.627a14.374,14.374,0,0,1,10.3,4.379l4.759,4.939a1.748,1.748,0,0,0,1.259.536H82.8a5.349,5.349,0,0,1,0,10.7H57.479a1.75,1.75,0,0,0,0,3.5H82.8a8.856,8.856,0,0,0,8.739-7.528l17.665-17.666a5.349,5.349,0,1,1,7.564,7.564Z"/>
    <path d="M73.6,75.385A18.351,18.351,0,1,0,55.249,57.034,18.372,18.372,0,0,0,73.6,75.385Zm0-33.2a14.851,14.851,0,1,1-14.851,14.85A14.867,14.867,0,0,1,73.6,42.184Z"/>
    <path d="M67.813,61.388,65.77,63.913a11.632,11.632,0,0,0,6.61,3.035v1.9h2.581V67.033c4.113-.284,6.468-2.667,6.468-5.929,0-3.46-2.581-4.793-6.468-5.673V50.1a9.268,9.268,0,0,1,4.028,2.128l1.929-2.61a10.558,10.558,0,0,0-5.957-2.638V45.219H72.38V46.95c-3.489.425-5.844,2.78-5.844,5.843,0,3.347,2.355,4.595,5.844,5.5v5.531A9.691,9.691,0,0,1,67.813,61.388Zm7.148-2.44c2.014.6,2.922,1.192,2.922,2.5,0,1.249-.992,2.327-2.922,2.554ZM70.11,52.481a2.678,2.678,0,0,1,2.27-2.439V54.75C70.849,54.212,70.11,53.616,70.11,52.481Z"/>
  </g>
</svg>
